<?xml version="1.0" encoding="utf-8"?><svg xmlns="http://www.w3.org/2000/svg" xmlns:xlink="http://www.w3.org/1999/xlink"><symbol viewBox="0 0 32 31" id="behance" xmlns="http://www.w3.org/2000/svg"><path d="M14.8 0a15.2 15.2 0 1 0 .8 30.4A15.2 15.2 0 1 0 14.8 0zm2.6 10.8h4V12h-4v-1.2zM15 17.9l-.6.7c-.4.2-.7.4-1 .4l-1.4.2H8.3v-8.8h4.3c1 0 1.8.2 2.3.9.3.3.4.8.4 1.3s-.1 1-.4 1.3c-.2.2-.4.4-.7.5.5.2.8.4 1 .8.3.3.4.8.4 1.3s-.1 1-.4 1.4H15zm3.5-.2c.2.2.5.3 1 .3l.9-.3c.1-.1.3-.1.4-.5h1.7c0 .4-.2.8-.6 1.2-.6.6-1.4 1-2.5 1-1 0-1.7-.3-2.4-.8-.7-.6-1-1.4-1-2.7 0-1.1.3-2 1-2.6.5-.6 1.3-.9 2.3-.9.5 0 1.1.1 1.6.3.5.2.8.5 1.1 1 .3.4.5.8.6 1.3v1.3H18c0 .9.2 1.2.7 1.4h-.2z"/><path d="M19.4 13.8c-.4 0-.8.1-1 .4-.3.2-.4.6-.5 1h3c0-.4-.2-.8-.4-1-.4-.3-.7-.4-1.1-.4zM12 14c.5 0 .8-.2 1-.3.3-.2.4-.5.4-.9s-.2-.7-.5-.8H9.8v2H12zm1 1.4c-.3-.2-.6-.2-.9-.2H9.8v2.4H12c.4 0 .7 0 1-.2.3-.2.5-.5.5-1s-.2-.9-.6-1h.1z"/></symbol><symbol viewBox="0 0 8 15" id="dropdown" xmlns="http://www.w3.org/2000/svg"><path d="M3.6 12L1.1 9.5 0 10.6l3.6 3.6 3.6-3.6-1.1-1.1L3.6 12zm0-9.8l2.5 2.5 1.1-1.1L3.6 0 0 3.6l1.1 1.1 2.5-2.5z"/></symbol><symbol viewBox="0 0 31 31" id="facebook" xmlns="http://www.w3.org/2000/svg"><path d="M22.7 22.1c0 .4-.2.9-.7.9h-3.7v-5.6h1.9l.3-2.4h-2.2v-1.4c0-.6.2-1 1.1-1h1.3v-2.1c-.4 0-1-.1-1.8-.1-1.7 0-3 1-3 2.9V15h-2v2.4h2V23H9c-.4 0-.7-.5-.7-.9V9c0-.4.2-.8.7-.8h13c.4 0 .7.4.7.8v13.1zM15.3.5C6.9.4.1 7.2.1 15.6 0 24 6.8 30.8 15.2 30.8h.1c8.4 0 15.2-6.8 15.1-15.2C30.4 7.3 23.7.5 15.3.5z"/></symbol><symbol viewBox="0 0 31 31" id="google" xmlns="http://www.w3.org/2000/svg"><path d="M21.9 16.2v2h-1.2v-2h-2V15h2v-1.6h1.2V15h1.6v1.2h-1.6zm-14.4-.4c0-2.8 2.3-5.2 5.1-5.2 1.3 0 2.5.5 3.4 1.3-1.1 1-1 1.1-1.4 1.5-1.2-1.1-3.1-1-4.2.3-.5.6-.8 1.3-.7 2 0 1.7 1.3 3.1 3 3.1s2.3-.7 2.8-1.9h-2.7v-2h4.9c.3 2.4-.7 6-4.9 6-3 .1-5.3-2.2-5.3-5.1zm-7.1-.1a15.2 15.2 0 1 0 30.4.8v-.8a15.2 15.2 0 0 0-30.4 0z"/></symbol><symbol viewBox="0 0 31 31" id="linkedin" xmlns="http://www.w3.org/2000/svg"><path d="M19.9 22v-4.7c0-1.2-.4-2.1-1.5-2.1-.8 0-1.3.6-1.6 1.1-.1.2-.1.5-.1.7v5h-3.1v-9.2h3.1v1.6c.7-1 1.8-1.6 3-1.5 2 0 3.8 1.3 3.8 4.1v5h-3.6zm-9.6-10c-1 0-1.7-.8-1.7-1.7 0-.9.7-1.6 1.8-1.6.9-.1 1.7.6 1.8 1.5s-.6 1.7-1.5 1.8h-.4zm-1.2.8h2.8V22H9.1v-9.2zM.5 15.2a15.2 15.2 0 1 0 30.4.8v-.8C30.7 6.8 23.7.2 15.3.4 7.2.7.7 7.2.5 15.2z"/></symbol><symbol viewBox="0 0 11 15" id="location" xmlns="http://www.w3.org/2000/svg"><path d="M5 6.7c-1 0-1.8-.8-1.8-1.7S4 3.2 5 3.2 6.7 4 6.7 5 5.9 6.7 5 6.7zM5 0C2.2 0 0 2.2 0 4.9c0 3.7 5 9.2 5 9.2s5-5.5 5-9.2C9.9 2.2 7.7 0 5 0z"/></symbol><symbol viewBox="0 0 26 31" id="logo" xmlns="http://www.w3.org/2000/svg"><path d="M23.2 7.5c-4.4-4.4-11.6-4.5-16-.1s-4.5 11.6-.1 16c4.2 4.3 11.1 4.5 15.5.5l2.6 3a15.2 15.2 0 0 1-21.4-1.4C-1.7 19.2-1.1 9.6 5.3 4c6-5.3 15.1-5 20.7.7l-2.8 2.8zM18 12.8a3.98 3.98 0 0 0-5.7 0 3.98 3.98 0 0 0 0 5.7c1.5 1.5 3.9 1.6 5.5.2l2.6 3A8.04 8.04 0 0 1 9.1 21c-2.9-3.3-2.6-8.4.7-11.3 3.2-2.8 8-2.7 11 .4L18 12.8z"/></symbol><symbol viewBox="0 0 31 31" id="twitter" xmlns="http://www.w3.org/2000/svg"><path d="M21.2 12v.4c0 4.2-3.1 9-8.7 9-1.7 0-3.3-.5-4.7-1.4 1.6.2 3.3-.3 4.5-1.3-1.3 0-2.5-.9-2.9-2.2.5.1 1 .1 1.4-.1-1.4-.3-2.5-1.6-2.4-3.1.4.2.9.4 1.4.4-1.4-.9-1.8-2.8-1-4.2 1.5 2 3.8 3.2 6.3 3.3-.4-1.7.6-3.4 2.3-3.8.2-.1.5-.1.7-.1.9 0 1.7.4 2.2 1 .7-.1 1.3-.4 2-.8-.2.7-.7 1.3-1.3 1.7.6-.1 1.2-.2 1.8-.5-.5.7-1 1.3-1.6 1.7zM15.4 0C7 0 .2 6.8.2 15.2c0 8.4 6.8 15.2 15.1 15.2h.1c8.4 0 15.2-6.8 15.1-15.2C30.5 6.8 23.8.1 15.4 0z"/></symbol></svg>